<?xml version="1.0" encoding="utf-8"?>
<!-- Generator: Adobe Illustrator 16.0.0, SVG Export Plug-In . SVG Version: 6.00 Build 0)  -->
<!DOCTYPE svg PUBLIC "-//W3C//DTD SVG 1.1//EN" "http://www.w3.org/Graphics/SVG/1.1/DTD/svg11.dtd">
<svg version="1.1" id="Isolation_Mode" xmlns="http://www.w3.org/2000/svg" xmlns:xlink="http://www.w3.org/1999/xlink" x="0px"
	 y="0px" width="294px" height="135px" viewBox="88.239 226.644 294 135" enable-background="new 88.239 226.644 294 135"
	 xml:space="preserve">
<path fill="#8F9194" d="M114.285,314.26v-7.402h6.2v-50.412h-6.2v-7.401h20.834v7.401h-6.202v50.412h6.202v7.402H114.285z
	 M145.292,292.912v-7.402h23.72v7.402H145.292z M176.07,281.367c0-4.659,0.771-9.062,2.314-13.146
	c1.516-4.087,3.658-7.659,6.459-10.688c2.743-3.029,6.059-5.401,9.888-7.146s8.03-2.629,12.632-2.629
	c4.63,0,8.858,0.886,12.688,2.629s7.145,4.115,9.889,7.146c2.771,3.028,4.888,6.602,6.401,10.688
	c1.515,4.086,2.286,8.487,2.286,13.146c0,4.37-0.657,8.545-2.001,12.432c-1.343,3.886-3.2,7.344-5.602,10.345
	c-2.399,3.029-5.314,5.544-8.658,7.487c-3.345,1.972-7.03,3.201-11.09,3.687c1.858,0.516,3.373,1.115,4.487,1.829
	c1.114,0.688,2.515,1.486,4.201,2.372c1.687,0.915,3.399,1.372,5.087,1.372c1.629,0,3.086-0.429,4.344-1.313
	c1.285-0.857,2.114-2.201,2.516-3.974l6.544,3.145c-0.344,1.571-0.973,2.942-1.914,4.144c-0.915,1.201-2.029,2.201-3.258,3.001
	c-1.259,0.801-2.603,1.4-4.029,1.801c-1.43,0.399-2.83,0.601-4.201,0.601c-2.229,0-4.287-0.399-6.201-1.229
	c-1.942-0.8-3.973-1.771-6.116-2.915c-2.113-1.144-4.144-1.715-6.087-1.715c-1.199,0-2.399,0.2-3.629,0.571v-7.716
	c-4.028-0.543-7.688-1.801-11.003-3.772c-3.314-1.971-6.144-4.458-8.517-7.486c-2.371-3.029-4.201-6.487-5.486-10.347
	C176.699,289.796,176.07,285.71,176.07,281.367L176.07,281.367z M184.872,281.367c0,3.972,0.601,7.544,1.742,10.743
	c1.173,3.174,2.716,5.859,4.631,7.975c1.915,2.144,4.314,3.916,7.145,5.345c2.886,1.4,5.858,2.114,8.974,2.114
	c3.4,0,6.517-0.714,9.26-2.114c2.801-1.429,5.144-3.344,7.087-5.744c1.942-2.399,3.458-5.173,4.516-8.315
	c1.058-3.173,1.601-6.517,1.601-10.002c0-3.603-0.601-7.089-1.742-10.403c-1.172-3.315-2.801-6.146-4.888-8.487
	c-2.086-2.344-4.486-4.173-7.145-5.43c-2.658-1.258-5.545-1.887-8.688-1.887c-3.4,0-6.487,0.715-9.287,2.114
	c-2.772,1.429-5.145,3.345-7.088,5.744c-1.942,2.4-3.459,5.172-4.516,8.345C185.415,274.536,184.872,277.879,184.872,281.367
	L184.872,281.367z M244.343,277.108v-7.4h14.378v27.605c0,3.4,0.802,5.974,2.373,7.716c1.572,1.743,3.858,2.602,6.802,2.602
	c1.743,0,3.572-0.285,5.517-0.886c1.943-0.602,3.742-1.43,5.458-2.516v-27.121h-5.916v-7.4H287.3v37.15h4.943v7.402H279.24v-4.259
	c-2.027,1.601-4.199,2.829-6.544,3.716c-2.372,0.886-4.915,1.313-7.602,1.313c-2.258,0-4.287-0.313-6.115-0.972
	c-1.858-0.629-3.402-1.629-4.689-3.001c-1.286-1.372-2.26-3.087-2.944-5.173c-0.715-2.114-1.059-4.601-1.059-7.487v-21.291
	L244.343,277.108L244.343,277.108z M303.732,277.108v-7.4h14.546v37.15h6.773v7.402h-21.233v-7.402h6.459v-29.75H303.732z
	 M308.762,253.902c0-0.741,0.143-1.457,0.457-2.114c0.286-0.687,0.686-1.258,1.2-1.771c0.484-0.486,1.086-0.915,1.771-1.201
	c0.657-0.313,1.4-0.457,2.172-0.457c0.743,0,1.458,0.144,2.145,0.457c0.656,0.286,1.258,0.715,1.771,1.201
	c0.486,0.514,0.887,1.085,1.2,1.771c0.314,0.657,0.458,1.373,0.458,2.114c0,0.771-0.144,1.516-0.458,2.201
	c-0.313,0.687-0.714,1.314-1.2,1.828c-0.514,0.543-1.114,0.943-1.771,1.258c-0.687,0.286-1.4,0.457-2.145,0.457
	c-0.771,0-1.515-0.171-2.172-0.457c-0.686-0.313-1.286-0.715-1.771-1.258c-0.516-0.514-0.914-1.143-1.2-1.828
	C308.905,255.417,308.762,254.673,308.762,253.902L308.762,253.902z M330.509,276.736v-7.028h7.002v-10.689l8.002-3.686v14.375
	H355.8v7.028h-10.373l-0.145,25.292c0,1.716,0.2,3.115,0.602,4.174c0.429,1.086,1.058,1.828,1.942,2.229
	c0.914,0.399,1.887,0.628,3.029,0.628c1.2,0,2.258-0.114,3.172-0.343c0.915-0.2,1.915-0.543,3.001-1.059l1.857,5.346
	c-1.372,0.715-2.829,1.286-4.345,1.687c-1.515,0.429-3.314,0.628-5.372,0.628c-1.943,0-3.657-0.229-5.145-0.686
	c-1.458-0.457-2.715-1.258-3.715-2.344c-1.001-1.114-1.772-2.602-2.287-4.458c-0.485-1.829-0.742-4.145-0.742-6.916l0.144-24.179
	L330.509,276.736L330.509,276.736z"/>
<polygon fill="#8F9194" points="93.395,231.811 93.452,231.811 93.452,231.611 375.09,231.611 375.09,239.556 375.062,239.556 
	375.062,321.976 375.09,321.976 375.09,329.92 253.461,329.92 246.143,321.976 367.117,321.976 367.117,239.556 101.34,239.556 
	101.34,321.976 194.531,321.976 204.219,329.92 93.452,329.92 93.452,327.834 93.395,327.834 "/>
<path fill="#FFFFFF" d="M104.141,354.67h-2.114v-16.377h-5.772v-1.886h13.688v1.886h-5.802V354.67z M117.344,340.723
	c0.601,0,1.144,0.057,1.629,0.144l-0.285,1.942c-0.57-0.143-1.057-0.2-1.485-0.2c-1.114,0-2.058,0.457-2.857,1.344
	c-0.771,0.916-1.172,2.028-1.172,3.374v7.345h-2.059v-13.69h1.688l0.257,2.544h0.086c0.516-0.915,1.114-1.601,1.829-2.087
	C115.715,340.952,116.486,340.723,117.344,340.723L117.344,340.723z M129.461,354.67l-0.429-1.943h-0.086
	c-0.686,0.857-1.372,1.429-2.059,1.743c-0.656,0.285-1.514,0.457-2.543,0.457c-1.343,0-2.4-0.371-3.172-1.058
	c-0.771-0.715-1.172-1.687-1.172-3.001c0-2.743,2.229-4.2,6.631-4.345l2.343-0.057v-0.858c0-1.085-0.229-1.856-0.714-2.372
	c-0.458-0.515-1.201-0.771-2.201-0.771c-1.143,0-2.43,0.343-3.887,1.058l-0.629-1.601c0.687-0.372,1.399-0.657,2.229-0.857
	c0.8-0.199,1.602-0.313,2.4-0.313c1.629,0,2.857,0.343,3.63,1.086c0.8,0.714,1.199,1.886,1.199,3.486v9.347L129.461,354.67
	L129.461,354.67z M124.773,353.212c1.286,0,2.286-0.371,3.029-1.059c0.743-0.714,1.114-1.715,1.114-2.972v-1.258l-2.086,0.086
	c-1.629,0.058-2.829,0.314-3.543,0.771c-0.744,0.456-1.115,1.172-1.115,2.114c0,0.771,0.229,1.343,0.686,1.715
	C123.316,353.012,123.944,353.212,124.773,353.212L124.773,353.212z M139.691,353.212c0.371,0,0.714-0.028,1.059-0.086
	c0.342-0.058,0.6-0.114,0.8-0.171v1.601c-0.229,0.085-0.543,0.171-0.972,0.257c-0.457,0.058-0.857,0.114-1.2,0.114
	c-2.63,0-3.974-1.4-3.974-4.201v-8.146h-1.941v-1l1.941-0.857l0.887-2.915h1.201v3.172h3.972v1.602h-3.972v8.06
	c0,0.829,0.198,1.458,0.57,1.915C138.463,352.984,139.006,353.212,139.691,353.212L139.691,353.212z M152.723,354.67l-0.429-1.943
	h-0.086c-0.687,0.857-1.371,1.429-2.059,1.743c-0.656,0.285-1.515,0.457-2.543,0.457c-1.343,0-2.4-0.371-3.173-1.058
	c-0.771-0.715-1.172-1.687-1.172-3.001c0-2.743,2.23-4.2,6.631-4.345l2.344-0.057v-0.858c0-1.085-0.229-1.856-0.715-2.372
	c-0.457-0.515-1.2-0.771-2.201-0.771c-1.143,0-2.429,0.343-3.886,1.058l-0.629-1.601c0.688-0.372,1.4-0.657,2.229-0.857
	c0.8-0.199,1.6-0.313,2.399-0.313c1.629,0,2.857,0.343,3.629,1.086c0.801,0.714,1.2,1.886,1.2,3.486v9.347L152.723,354.67
	L152.723,354.67z M148.037,353.212c1.284,0,2.285-0.371,3.028-1.059c0.742-0.714,1.114-1.715,1.114-2.972v-1.258l-2.087,0.086
	c-1.629,0.058-2.828,0.314-3.543,0.771c-0.743,0.456-1.114,1.172-1.114,2.114c0,0.771,0.229,1.343,0.687,1.715
	C146.58,353.012,147.208,353.212,148.037,353.212L148.037,353.212z M175.985,354.67v-8.918c0-1.085-0.229-1.915-0.715-2.458
	c-0.457-0.543-1.172-0.8-2.172-0.8c-1.286,0-2.229,0.371-2.856,1.086c-0.63,0.744-0.915,1.886-0.915,3.431v7.659h-2.087v-8.918
	c0-1.085-0.229-1.915-0.687-2.458c-0.485-0.543-1.199-0.8-2.2-0.8c-1.286,0-2.257,0.371-2.856,1.144
	c-0.602,0.8-0.887,2.058-0.887,3.83v7.202h-2.086v-13.69h1.687l0.343,1.857h0.086c0.399-0.657,0.942-1.172,1.657-1.543
	c0.715-0.4,1.515-0.571,2.399-0.571c2.145,0,3.545,0.771,4.201,2.314h0.086c0.43-0.716,1-1.286,1.771-1.688
	c0.771-0.429,1.658-0.628,2.658-0.628c1.543,0,2.715,0.399,3.485,1.2c0.771,0.8,1.144,2.058,1.144,3.801v8.946L175.985,354.67
	L175.985,354.67z M184.387,354.67h-2.058v-13.69h2.058V354.67z M182.157,337.265c0-0.486,0.115-0.829,0.345-1.058
	c0.229-0.2,0.514-0.314,0.886-0.314c0.313,0,0.601,0.114,0.856,0.343c0.229,0.229,0.344,0.571,0.344,1.029
	c0,0.457-0.114,0.8-0.344,1.028c-0.257,0.229-0.543,0.343-0.856,0.343c-0.372,0-0.657-0.114-0.886-0.343
	C182.272,338.064,182.157,337.722,182.157,337.265L182.157,337.265z M194.59,354.927c-2.029,0-3.629-0.629-4.801-1.857
	s-1.744-2.942-1.744-5.145s0.543-3.944,1.629-5.259c1.087-1.286,2.544-1.943,4.373-1.943c1.715,0,3.086,0.571,4.059,1.687
	c1.028,1.144,1.515,2.629,1.515,4.487v1.286h-9.431c0.027,1.629,0.457,2.829,1.199,3.688c0.771,0.828,1.857,1.229,3.258,1.229
	c1.486,0,2.944-0.286,4.373-0.914v1.857c-0.715,0.313-1.399,0.543-2.058,0.657C196.304,354.841,195.504,354.927,194.59,354.927
	L194.59,354.927z M194.018,342.466c-1.086,0-1.972,0.343-2.63,1.058c-0.656,0.714-1.028,1.714-1.143,2.974h7.145
	c0-1.287-0.286-2.287-0.856-3.002C195.933,342.809,195.104,342.466,194.018,342.466L194.018,342.466z M212.537,354.67v-8.86
	c0-1.115-0.259-1.942-0.771-2.516c-0.516-0.543-1.313-0.8-2.4-0.8c-1.43,0-2.459,0.371-3.145,1.144c-0.656,0.772-1,2.059-1,3.83
	v7.202h-2.058v-13.69h1.687l0.314,1.857h0.112c0.431-0.657,1.029-1.2,1.802-1.571c0.742-0.372,1.601-0.543,2.543-0.543
	c1.657,0,2.887,0.399,3.716,1.2c0.856,0.8,1.257,2.058,1.257,3.801v8.946H212.537L212.537,354.67z M223.28,353.212
	c0.372,0,0.716-0.028,1.06-0.086c0.342-0.058,0.628-0.114,0.828-0.171v1.601c-0.229,0.085-0.571,0.171-1,0.257
	c-0.43,0.058-0.829,0.114-1.2,0.114c-2.63,0-3.944-1.4-3.944-4.201v-8.146h-1.972v-1l1.972-0.857l0.857-2.915h1.201v3.172h3.972
	v1.602h-3.972v8.06c0,0.829,0.198,1.458,0.6,1.915C222.052,352.984,222.595,353.212,223.28,353.212L223.28,353.212z
	 M239.715,347.811c0,2.229-0.571,3.974-1.687,5.23c-1.114,1.257-2.687,1.886-4.658,1.886c-1.229,0-2.315-0.286-3.26-0.886
	c-0.942-0.572-1.686-1.4-2.199-2.458c-0.517-1.086-0.772-2.344-0.772-3.772c0-2.229,0.543-3.974,1.657-5.229
	c1.116-1.229,2.689-1.857,4.66-1.857c1.915,0,3.43,0.628,4.572,1.914C239.144,343.923,239.715,345.638,239.715,347.811
	L239.715,347.811z M229.282,347.811c0,1.743,0.344,3.087,1.059,4.001c0.686,0.915,1.715,1.372,3.087,1.372
	c1.343,0,2.372-0.457,3.087-1.372c0.687-0.914,1.057-2.258,1.057-4.001c0-1.744-0.37-3.058-1.057-3.974
	c-0.715-0.886-1.744-1.343-3.115-1.343s-2.4,0.429-3.087,1.313C229.626,344.725,229.282,346.039,229.282,347.811L229.282,347.811z
	 M258.408,354.67l-0.399-1.943h-0.115c-0.657,0.857-1.344,1.429-2.03,1.743c-0.686,0.285-1.515,0.457-2.544,0.457
	c-1.343,0-2.43-0.371-3.201-1.058c-0.771-0.715-1.144-1.687-1.144-3.001c0-2.743,2.2-4.2,6.631-4.345l2.316-0.057v-0.858
	c0-1.085-0.229-1.856-0.688-2.372c-0.458-0.515-1.2-0.771-2.229-0.771c-1.115,0-2.43,0.343-3.859,1.058l-0.629-1.601
	c0.657-0.372,1.401-0.657,2.201-0.857c0.8-0.199,1.629-0.313,2.43-0.313c1.63,0,2.831,0.343,3.631,1.086
	c0.771,0.714,1.174,1.886,1.174,3.486v9.347L258.408,354.67L258.408,354.67z M253.748,353.212c1.285,0,2.288-0.371,3.03-1.059
	c0.742-0.714,1.114-1.715,1.114-2.972v-1.258l-2.087,0.086c-1.658,0.058-2.83,0.314-3.573,0.771
	c-0.716,0.456-1.087,1.172-1.087,2.114c0,0.771,0.229,1.343,0.687,1.715C252.29,353.012,252.919,353.212,253.748,353.212
	L253.748,353.212z M273.614,354.67v-8.86c0-1.115-0.258-1.942-0.771-2.516c-0.515-0.543-1.314-0.8-2.4-0.8
	c-1.43,0-2.458,0.371-3.144,1.144c-0.658,0.772-1.001,2.059-1.001,3.83v7.202h-2.059v-13.69h1.688l0.313,1.857h0.114
	c0.429-0.657,1.028-1.2,1.8-1.571c0.743-0.372,1.602-0.543,2.544-0.543c1.657,0,2.888,0.399,3.716,1.2
	c0.856,0.8,1.258,2.058,1.258,3.801v8.946H273.614L273.614,354.67z M284.359,353.212c0.371,0,0.714-0.028,1.059-0.086
	c0.343-0.058,0.628-0.114,0.828-0.171v1.601c-0.229,0.085-0.571,0.171-1,0.257c-0.43,0.058-0.829,0.114-1.2,0.114
	c-2.629,0-3.943-1.4-3.943-4.201v-8.146h-1.973v-1l1.973-0.857l0.857-2.915h1.199v3.172h3.973v1.602h-3.973v8.06
	c0,0.829,0.199,1.458,0.601,1.915C283.13,352.984,283.673,353.212,284.359,353.212L284.359,353.212z M291.046,354.67h-2.087v-13.69
	h2.087V354.67z M288.789,337.265c0-0.486,0.113-0.829,0.371-1.058c0.229-0.2,0.515-0.314,0.856-0.314s0.629,0.114,0.857,0.343
	c0.257,0.229,0.371,0.571,0.371,1.029c0,0.457-0.114,0.8-0.371,1.028c-0.229,0.229-0.516,0.343-0.857,0.343
	s-0.629-0.114-0.856-0.343C288.903,338.065,288.789,337.722,288.789,337.265L288.789,337.265z M306.506,353.212
	c0.372,0,0.742-0.028,1.058-0.086c0.343-0.058,0.629-0.114,0.829-0.171v1.601c-0.229,0.085-0.572,0.171-1.001,0.257
	c-0.429,0.058-0.828,0.114-1.171,0.114c-2.658,0-3.974-1.4-3.974-4.201v-8.146h-1.972v-1l1.972-0.857l0.857-2.915h1.2v3.172h3.972
	v1.602h-3.972v8.06c0,0.829,0.2,1.458,0.6,1.915C305.306,352.984,305.821,353.212,306.506,353.212L306.506,353.212z M319.537,354.67
	l-0.398-1.943h-0.114c-0.687,0.857-1.344,1.429-2.029,1.743c-0.686,0.285-1.543,0.457-2.544,0.457c-1.371,0-2.429-0.371-3.2-1.058
	c-0.771-0.715-1.144-1.687-1.144-3.001c0-2.743,2.201-4.2,6.63-4.345l2.315-0.057v-0.858c0-1.085-0.229-1.856-0.688-2.372
	c-0.457-0.515-1.2-0.771-2.229-0.771c-1.145,0-2.43,0.343-3.858,1.058l-0.628-1.601c0.657-0.372,1.4-0.657,2.2-0.857
	c0.8-0.199,1.601-0.313,2.429-0.313c1.629,0,2.829,0.343,3.63,1.086c0.771,0.714,1.172,1.886,1.172,3.486v9.347L319.537,354.67
	L319.537,354.67z M314.851,353.212c1.286,0,2.313-0.371,3.058-1.059c0.743-0.714,1.086-1.715,1.086-2.972v-1.258l-2.058,0.086
	c-1.657,0.058-2.857,0.314-3.572,0.771c-0.714,0.456-1.086,1.172-1.086,2.114c0,0.771,0.229,1.343,0.688,1.715
	C313.394,353.012,314.051,353.212,314.851,353.212L314.851,353.212z M331.74,340.751c1.8,0,3.172,0.6,4.172,1.829
	c1.001,1.229,1.486,2.972,1.486,5.229s-0.485,4.001-1.486,5.23c-1,1.257-2.399,1.886-4.172,1.886c-0.915,0-1.715-0.172-2.458-0.515
	c-0.743-0.314-1.343-0.828-1.856-1.516h-0.144l-0.429,1.772h-1.486v-19.436h2.059v4.716c0,1.058-0.028,2.001-0.086,2.857h0.086
	C328.397,341.437,329.825,340.751,331.74,340.751L331.74,340.751z M331.426,342.495c-1.43,0-2.43,0.399-3.059,1.199
	c-0.629,0.83-0.942,2.173-0.942,4.116c0,1.915,0.313,3.287,0.972,4.115c0.629,0.829,1.657,1.258,3.086,1.258
	c1.258,0,2.229-0.457,2.83-1.399c0.628-0.915,0.942-2.259,0.942-4.001c0-1.772-0.314-3.116-0.942-3.975
	C333.712,342.923,332.74,342.495,331.426,342.495L331.426,342.495z M349.458,354.67l-0.398-1.943h-0.114
	c-0.687,0.857-1.372,1.429-2.058,1.743c-0.658,0.285-1.516,0.457-2.517,0.457c-1.371,0-2.429-0.371-3.199-1.058
	c-0.771-0.715-1.173-1.687-1.173-3.001c0-2.743,2.229-4.2,6.658-4.345l2.315-0.057v-0.858c0-1.085-0.229-1.856-0.688-2.372
	c-0.484-0.515-1.2-0.771-2.229-0.771c-1.145,0-2.43,0.343-3.888,1.058l-0.629-1.601c0.688-0.372,1.43-0.657,2.229-0.857
	c0.8-0.199,1.601-0.313,2.399-0.313c1.63,0,2.857,0.343,3.63,1.086c0.801,0.714,1.2,1.886,1.2,3.486v9.347L349.458,354.67
	L349.458,354.67z M344.772,353.212c1.286,0,2.313-0.371,3.029-1.059c0.743-0.714,1.113-1.715,1.113-2.972v-1.258l-2.058,0.086
	c-1.657,0.058-2.857,0.314-3.572,0.771c-0.743,0.456-1.113,1.172-1.113,2.114c0,0.771,0.229,1.343,0.686,1.715
	C343.315,353.012,343.943,353.212,344.772,353.212L344.772,353.212z M360.746,354.927c-2,0-3.515-0.629-4.601-1.829
	c-1.114-1.229-1.629-2.972-1.629-5.201c0-2.287,0.543-4.06,1.629-5.288c1.114-1.258,2.687-1.886,4.715-1.886
	c0.657,0,1.344,0.058,2.001,0.199c0.657,0.144,1.172,0.313,1.543,0.515l-0.629,1.772c-0.485-0.2-0.972-0.344-1.515-0.458
	c-0.543-0.144-1.028-0.2-1.43-0.2c-2.801,0-4.172,1.773-4.172,5.317c0,1.686,0.343,2.972,1,3.887
	c0.687,0.886,1.687,1.343,3.029,1.343c1.143,0,2.313-0.229,3.515-0.743v1.857C363.29,354.67,362.118,354.927,360.746,354.927
	L360.746,354.927z M379.265,347.811c0,2.229-0.571,3.974-1.687,5.23c-1.114,1.257-2.687,1.886-4.657,1.886
	c-1.229,0-2.315-0.286-3.259-0.886c-0.942-0.572-1.687-1.4-2.2-2.458c-0.515-1.086-0.771-2.344-0.771-3.772
	c0-2.229,0.543-3.974,1.657-5.229c1.115-1.229,2.687-1.857,4.658-1.857c1.915,0,3.43,0.628,4.572,1.914
	C378.694,343.923,379.265,345.638,379.265,347.811L379.265,347.811z M368.834,347.811c0,1.743,0.344,3.087,1.059,4.001
	c0.686,0.915,1.715,1.372,3.086,1.372c1.344,0,2.372-0.457,3.087-1.372c0.686-0.914,1.057-2.258,1.057-4.001
	c0-1.744-0.371-3.058-1.057-3.974c-0.715-0.886-1.743-1.343-3.115-1.343s-2.399,0.429-3.087,1.313
	C369.177,344.725,368.834,346.039,368.834,347.811L368.834,347.811z"/>
<path fill="#FFFFFF" d="M117.287,313.259v-7.402h6.2v-50.412h-6.2v-7.401h20.834v7.401h-6.202v50.412h6.202v7.402H117.287z
	 M148.294,291.912v-7.402h23.72v7.402H148.294z M179.071,280.367c0-4.659,0.771-9.062,2.314-13.146
	c1.516-4.087,3.658-7.659,6.459-10.688c2.743-3.029,6.059-5.401,9.888-7.146s8.03-2.629,12.632-2.629
	c4.63,0,8.858,0.886,12.688,2.629s7.145,4.115,9.89,7.146c2.771,3.028,4.888,6.602,6.401,10.688
	c1.515,4.086,2.286,8.487,2.286,13.146c0,4.37-0.657,8.545-2.001,12.432c-1.343,3.886-3.2,7.344-5.602,10.344
	c-2.399,3.029-5.316,5.544-8.66,7.487c-3.345,1.972-7.03,3.201-11.09,3.687c1.858,0.516,3.373,1.115,4.487,1.829
	c1.114,0.688,2.515,1.486,4.201,2.372c1.687,0.915,3.399,1.372,5.087,1.372c1.629,0,3.086-0.429,4.345-1.313
	c1.285-0.857,2.114-2.201,2.516-3.974l6.544,3.145c-0.344,1.571-0.973,2.942-1.914,4.144c-0.915,1.201-2.029,2.201-3.258,3.001
	c-1.259,0.801-2.603,1.4-4.029,1.801c-1.431,0.399-2.831,0.601-4.203,0.601c-2.229,0-4.287-0.399-6.201-1.229
	c-1.942-0.8-3.973-1.771-6.116-2.915c-2.113-1.144-4.144-1.715-6.087-1.715c-1.199,0-2.399,0.2-3.629,0.571v-7.716
	c-4.028-0.543-7.688-1.801-11.003-3.772c-3.314-1.971-6.144-4.458-8.517-7.486c-2.371-3.029-4.201-6.487-5.486-10.346
	C179.701,288.796,179.071,284.71,179.071,280.367L179.071,280.367z M187.874,280.367c0,3.972,0.601,7.544,1.742,10.743
	c1.173,3.174,2.716,5.859,4.631,7.975c1.915,2.144,4.314,3.916,7.145,5.344c2.886,1.4,5.858,2.114,8.974,2.114
	c3.4,0,6.517-0.714,9.26-2.114c2.801-1.429,5.144-3.343,7.087-5.744c1.942-2.399,3.458-5.173,4.516-8.315
	c1.059-3.173,1.602-6.517,1.602-10.002c0-3.603-0.601-7.089-1.743-10.403c-1.172-3.315-2.801-6.146-4.888-8.487
	c-2.086-2.344-4.486-4.173-7.145-5.43c-2.658-1.258-5.545-1.887-8.688-1.887c-3.4,0-6.487,0.715-9.287,2.114
	c-2.772,1.429-5.145,3.345-7.088,5.744c-1.942,2.4-3.459,5.172-4.516,8.345C188.417,273.536,187.874,276.879,187.874,280.367
	L187.874,280.367z M247.346,276.107v-7.4h14.378v27.605c0,3.4,0.802,5.974,2.373,7.715c1.572,1.743,3.858,2.602,6.802,2.602
	c1.743,0,3.572-0.285,5.517-0.886c1.943-0.602,3.742-1.43,5.458-2.516v-27.121h-5.916v-7.4h14.346v37.15h4.943v7.402h-13.004V309
	c-2.027,1.601-4.199,2.829-6.544,3.716c-2.372,0.886-4.915,1.313-7.602,1.313c-2.258,0-4.287-0.313-6.115-0.972
	c-1.858-0.629-3.402-1.629-4.689-3.001c-1.286-1.372-2.26-3.087-2.944-5.173c-0.715-2.114-1.059-4.6-1.059-7.487v-21.291
	L247.346,276.107L247.346,276.107z M306.735,276.107v-7.4h14.546v37.15h6.773v7.402h-21.233v-7.402h6.459v-29.75H306.735z
	 M311.765,252.901c0-0.741,0.143-1.457,0.457-2.114c0.286-0.687,0.686-1.258,1.2-1.771c0.484-0.486,1.086-0.915,1.771-1.201
	c0.657-0.313,1.4-0.457,2.172-0.457c0.743,0,1.458,0.144,2.145,0.457c0.656,0.286,1.258,0.715,1.771,1.201
	c0.486,0.514,0.887,1.085,1.2,1.771c0.314,0.657,0.458,1.373,0.458,2.114c0,0.771-0.144,1.516-0.458,2.201
	c-0.313,0.687-0.714,1.314-1.2,1.828c-0.514,0.543-1.114,0.943-1.771,1.258c-0.687,0.286-1.4,0.457-2.145,0.457
	c-0.771,0-1.515-0.171-2.172-0.457c-0.686-0.313-1.286-0.715-1.771-1.258c-0.516-0.514-0.914-1.143-1.2-1.828
	C311.907,254.417,311.765,253.673,311.765,252.901L311.765,252.901z M333.512,275.735v-7.028h7.002v-10.689l8.002-3.686v14.375
	h10.287v7.028H348.43l-0.145,25.292c0,1.715,0.2,3.115,0.602,4.173c0.429,1.086,1.058,1.828,1.942,2.229
	c0.914,0.399,1.887,0.628,3.029,0.628c1.2,0,2.258-0.114,3.172-0.343c0.915-0.2,1.915-0.543,3.001-1.059l1.857,5.346
	c-1.372,0.715-2.829,1.286-4.345,1.687c-1.515,0.429-3.314,0.628-5.372,0.628c-1.943,0-3.657-0.229-5.145-0.686
	c-1.458-0.457-2.715-1.258-3.715-2.344c-1.001-1.114-1.772-2.602-2.287-4.458c-0.485-1.829-0.742-4.145-0.742-6.916l0.144-24.179
	L333.512,275.735L333.512,275.735z"/>
<polygon fill="#FFFFFF" points="96.396,230.81 96.454,230.81 96.454,230.61 378.093,230.61 378.093,238.555 378.065,238.555 
	378.065,320.975 378.093,320.975 378.093,328.919 256.464,328.919 249.146,320.975 370.12,320.975 370.12,238.555 104.342,238.555 
	104.342,320.975 197.532,320.975 207.22,328.919 96.454,328.919 96.454,326.833 96.396,326.833 "/>
</svg>
